<?xml version="1.0" encoding="UTF-8" standalone="no"?>
<svg
   xmlns:dc="http://purl.org/dc/elements/1.1/"
   xmlns:cc="http://creativecommons.org/ns#"
   xmlns:rdf="http://www.w3.org/1999/02/22-rdf-syntax-ns#"
   xmlns:svg="http://www.w3.org/2000/svg"
   xmlns="http://www.w3.org/2000/svg"
   xmlns:sodipodi="http://sodipodi.sourceforge.net/DTD/sodipodi-0.dtd"
   xmlns:inkscape="http://www.inkscape.org/namespaces/inkscape"
   id="Ebene_1"
   data-name="Ebene 1"
   viewBox="0 0 595.28 170.08"
   version="1.1"
   sodipodi:docname="footer_logo.svg"
   inkscape:version="0.92.3 (2405546, 2018-03-11)">
  <metadata
     id="metadata216">
    <rdf:RDF>
      <cc:Work
         rdf:about="">
        <dc:format>image/svg+xml</dc:format>
        <dc:type
           rdf:resource="http://purl.org/dc/dcmitype/StillImage" />
      </cc:Work>
    </rdf:RDF>
  </metadata>
  <sodipodi:namedview
     pagecolor="#ffffff"
     bordercolor="#666666"
     borderopacity="1"
     objecttolerance="10"
     gridtolerance="10"
     guidetolerance="10"
     inkscape:pageopacity="0"
     inkscape:pageshadow="2"
     inkscape:window-width="761"
     inkscape:window-height="480"
     id="namedview214"
     showgrid="false"
     inkscape:zoom="0.8124933"
     inkscape:cx="252.96607"
     inkscape:cy="4.2302755"
     inkscape:window-x="447"
     inkscape:window-y="156"
     inkscape:window-maximized="0"
     inkscape:current-layer="Ebene_1" />
  <defs
     id="defs137">
    <style
       id="style135">.cls-1{fill:#fff;}</style>
  </defs>
  <title
     id="title139">Zeichenfläche 1</title>
  <path
     inkscape:connector-curvature="0"
     class="cls-1"
     d="m 114.64036,153.84999 a 12,12 0 0 1 -4.46,-0.86 c -37.79,-15.12 -53.52,-50.43999 -56.29,-57.369986 a 12.39,12.39 0 0 1 -0.91,-4.71 v -43.49 a 12.4,12.4 0 0 1 7.5,-11.43 l 49.5,-21 a 12,12 0 0 1 9.3,0 l 49.51,21 a 12.36,12.36 0 0 1 7.52,11.48 v 43.44 a 12.74,12.74 0 0 1 -0.91,4.69 c -2.78,6.999996 -18.51,42.269986 -56.3,57.389986 a 12,12 0 0 1 -4.46,0.86 z m 0,-128.769986 a 1,1 0 0 0 -0.37,0.08 l -49.49,20.91 a 1.47,1.47 0 0 0 -0.8,1.35 v 43.49 a 1.54,1.54 0 0 0 0.11,0.58 c 2.49,6.25 16.55,37.829986 50.18,51.289986 a 1,1 0 0 0 0.75,0 c 33.62,-13.46 47.68,-44.999986 50.16,-51.239986 a 1.82,1.82 0 0 0 0.13,-0.63 v -43.49 a 1.44,1.44 0 0 0 -0.78,-1.34 l -49.55,-20.92 a 0.91,0.91 0 0 0 -0.37,-0.08 z"
     id="path4153"
     style="fill:#d40000" />
  <g
     id="g4129">
    <path
       id="path141"
       d="M340.31,128.22a3.85,3.85,0,0,0-2.57.93,6.36,6.36,0,0,0-1.77,2.57l-.24-3.14h-1.87v19H336V134.1a6.1,6.1,0,0,1,1.43-2.74,3.25,3.25,0,0,1,2.44-1l1.39.1.28-2.05a3.15,3.15,0,0,0-.53-.13A3.71,3.71,0,0,0,340.31,128.22Z"
       class="cls-1" />
    <g
       id="g4070">
      <path
         class="cls-1"
         d="M360.69,131.05a6.08,6.08,0,0,0-2-2.09,5.16,5.16,0,0,0-7.22,2,14.45,14.45,0,0,0-1.6,7.3v.37a12.56,12.56,0,0,0,1.61,6.79A5,5,0,0,0,356,148a5.29,5.29,0,0,0,2.79-.72,5.79,5.79,0,0,0,2-2.11l.17,2.47h1.87V120.17h-2.11Zm0,11.83a5.76,5.76,0,0,1-1.66,2.36,4,4,0,0,1-2.6.84,3.52,3.52,0,0,1-3.29-2,11.54,11.54,0,0,1-1.08-5.44v-.37a13.55,13.55,0,0,1,1.09-5.89,3.51,3.51,0,0,1,3.32-2.25,3.68,3.68,0,0,1,2.6,1,6.49,6.49,0,0,1,1.62,2.49Z"
         id="path143" />
    </g>
    <path
       id="path145"
       d="M327.71,142.43a5.38,5.38,0,0,1-1.63,2.68,4.34,4.34,0,0,1-2.94,1,2.89,2.89,0,0,1-2.63-1.48,10.05,10.05,0,0,1-.9-4.95V128.58H317.5v11c0,2.85.47,5,1.41,6.31a4.53,4.53,0,0,0,3.95,2,5,5,0,0,0,2.92-.87,6.06,6.06,0,0,0,2-2.47l.14,3h1.9v-19h-2.11Z"
       class="cls-1" />
    <rect
       id="rect147"
       height="19.02"
       width="2.13"
       y="128.58"
       x="367.12"
       class="cls-1" />
    <path
       id="path149"
       d="M200.19,137a12,12,0,0,1-3.16-1.92,3,3,0,0,1,.19-4.12,3.74,3.74,0,0,1,2.71-.9,3.52,3.52,0,0,1,2.76,1.14,3.91,3.91,0,0,1,1,2.69h2l0-.1a5.27,5.27,0,0,0-1.51-4,5.8,5.8,0,0,0-4.29-1.6,6,6,0,0,0-4.15,1.45,4.5,4.5,0,0,0-1.6,3.48,4.23,4.23,0,0,0,1.34,3.24,14.48,14.48,0,0,0,4.25,2.43,10,10,0,0,1,3.12,2,3.24,3.24,0,0,1,.85,2.25,2.84,2.84,0,0,1-1,2.21,4.07,4.07,0,0,1-2.79.9,4.61,4.61,0,0,1-2.85-.92,3.79,3.79,0,0,1-1.32-3h-2l0,.1a5.06,5.06,0,0,0,1.57,3.94,6.24,6.24,0,0,0,4.6,1.65,6.44,6.44,0,0,0,4.3-1.38,4.6,4.6,0,0,0,1.62-3.66,4.49,4.49,0,0,0-1.41-3.4A13.17,13.17,0,0,0,200.19,137Z"
       class="cls-1" />
    <path
       id="path151"
       d="M292.36,144.27h-.11l-.49-1.91-4-13.78h-2.34l6,18.77-.79,2.51a8.35,8.35,0,0,1-1.08,2.48,2,2,0,0,1-1.74,1,5.52,5.52,0,0,1-.59,0l-.58-.08-.23,1.81a5.93,5.93,0,0,0,.7.16,4.42,4.42,0,0,0,.79.09,3.38,3.38,0,0,0,2.89-1.37,11.37,11.37,0,0,0,1.63-3.27l6.78-22.06h-2.35Z"
       class="cls-1" />
    <g
       id="g4067">
      <path
         class="cls-1"
         d="M307.35,128.22a6.18,6.18,0,0,0-5.1,2.4,9.49,9.49,0,0,0-1.89,6.08v2.79a9.47,9.47,0,0,0,1.89,6.11,6.71,6.71,0,0,0,10.22,0,9.47,9.47,0,0,0,1.9-6.11V136.7a9.44,9.44,0,0,0-1.91-6.09A6.2,6.2,0,0,0,307.35,128.22Zm4.89,11.29a8.37,8.37,0,0,1-1.28,4.75,4.36,4.36,0,0,1-7.21,0,8.44,8.44,0,0,1-1.27-4.76v-2.8a8.36,8.36,0,0,1,1.27-4.71,4,4,0,0,1,3.6-1.91A4.1,4.1,0,0,1,311,132a8.28,8.28,0,0,1,1.28,4.71Z"
         id="path153" />
    </g>
    <path
       id="path155"
       d="M262.12,128.22a3.85,3.85,0,0,0-2.57.93,6.26,6.26,0,0,0-1.77,2.57l-.25-3.14h-1.86v19h2.11V134.1a6.09,6.09,0,0,1,1.42-2.74,3.29,3.29,0,0,1,2.45-1l1.39.1.28-2.05a3.15,3.15,0,0,0-.53-.13A3.81,3.81,0,0,0,262.12,128.22Z"
       class="cls-1" />
    <path
       id="path157"
       d="M226.61,132a3.89,3.89,0,0,1,3.59-1.86,3.8,3.8,0,0,1,3,1.34,5.27,5.27,0,0,1,1.19,3.61h1.88l0-.08a6.64,6.64,0,0,0-1.68-4.88,5.71,5.71,0,0,0-4.38-1.86,5.94,5.94,0,0,0-5.06,2.37,9.86,9.86,0,0,0-1.76,6v3a9.84,9.84,0,0,0,1.76,6,6.38,6.38,0,0,0,9.35.57,5.69,5.69,0,0,0,1.77-4.41l0-.11h-1.86A4.38,4.38,0,0,1,233.1,145a4.09,4.09,0,0,1-2.9,1.19,3.88,3.88,0,0,1-3.59-1.85,8.94,8.94,0,0,1-1.12-4.72v-3A8.92,8.92,0,0,1,226.61,132Z"
       class="cls-1" />
    <path
       id="path159"
       d="M271,128.22a5.92,5.92,0,0,0-4.72,2.39,9.08,9.08,0,0,0-2,6v3.17a8.81,8.81,0,0,0,2,5.89,6.24,6.24,0,0,0,5,2.31,7.44,7.44,0,0,0,3.28-.65,6.2,6.2,0,0,0,2.23-1.76l-.86-1.49a5.44,5.44,0,0,1-1.95,1.56,6,6,0,0,1-2.7.55,4.16,4.16,0,0,1-3.56-1.83,7.7,7.7,0,0,1-1.32-4.6v-1.58h10.88v-2.09a9.11,9.11,0,0,0-1.65-5.72A5.54,5.54,0,0,0,271,128.22Zm4.18,8.14h-8.77a7.86,7.86,0,0,1,1.32-4.46,3.85,3.85,0,0,1,3.27-1.81,3.57,3.57,0,0,1,3.07,1.55,6.59,6.59,0,0,1,1.11,3.91Z"
       class="cls-1" />
    <g
       id="g4064">
      <path
         class="cls-1"
         d="M249.52,142.43a5.38,5.38,0,0,1-1.63,2.68,4.34,4.34,0,0,1-2.94,1,2.89,2.89,0,0,1-2.63-1.48,9.92,9.92,0,0,1-.91-4.95V128.58H239.3v11c0,2.85.48,5,1.42,6.31a4.52,4.52,0,0,0,3.94,2,5,5,0,0,0,2.92-.87,6.16,6.16,0,0,0,2-2.47l.14,3h1.9v-19h-2.11Z"
         id="path161" />
    </g>
    <g
       id="g4061">
      <path
         class="cls-1"
         d="M214.92,128.22a5.93,5.93,0,0,0-4.72,2.39,9.14,9.14,0,0,0-2,6v3.17a8.81,8.81,0,0,0,1.95,5.89,6.25,6.25,0,0,0,5,2.31,7.47,7.47,0,0,0,3.28-.65,6.08,6.08,0,0,0,2.22-1.76l-.86-1.49a5.49,5.49,0,0,1-1.94,1.56,6.11,6.11,0,0,1-2.7.55,4.18,4.18,0,0,1-3.57-1.83,7.7,7.7,0,0,1-1.32-4.6v-1.58h10.88v-2.09a9.11,9.11,0,0,0-1.65-5.72A5.54,5.54,0,0,0,214.92,128.22Zm4.18,8.14h-8.77a7.87,7.87,0,0,1,1.33-4.46,3.84,3.84,0,0,1,3.26-1.81,3.59,3.59,0,0,1,3.08,1.55,6.59,6.59,0,0,1,1.1,3.91Z"
         id="path163" />
    </g>
    <rect
       id="rect165"
       height="19.02"
       width="2.13"
       y="128.58"
       x="442.22"
       class="cls-1" />
    <rect
       id="rect167"
       height="2.99"
       width="2.13"
       y="120.17"
       x="367.12"
       class="cls-1" />
    <rect
       id="rect169"
       height="27.42"
       width="2.13"
       y="120.17"
       x="435.61"
       class="cls-1" />
    <rect
       id="rect171"
       height="27.42"
       width="2.13"
       y="120.17"
       x="422.11"
       class="cls-1" />
    <g
       id="g4076">
      <path
         class="cls-1"
         d="M463.62,128.22a5.92,5.92,0,0,0-4.72,2.39,9.08,9.08,0,0,0-2,6v3.17a8.81,8.81,0,0,0,1.95,5.89,6.24,6.24,0,0,0,5,2.31,7.44,7.44,0,0,0,3.28-.65,6.2,6.2,0,0,0,2.23-1.76l-.86-1.49a5.44,5.44,0,0,1-1.95,1.56,6,6,0,0,1-2.7.55,4.16,4.16,0,0,1-3.56-1.83,7.7,7.7,0,0,1-1.32-4.6v-1.58h10.88v-2.09a9.11,9.11,0,0,0-1.65-5.72A5.54,5.54,0,0,0,463.62,128.22Zm4.18,8.14H459a7.79,7.79,0,0,1,1.33-4.46,3.83,3.83,0,0,1,3.26-1.81,3.57,3.57,0,0,1,3.07,1.55,6.59,6.59,0,0,1,1.11,3.91Z"
         id="path173" />
    </g>
    <path
       id="path175"
       d="M454.6,119.8a4.16,4.16,0,0,0-3.46,1.58,7.08,7.08,0,0,0-1.23,4.45v2.75h-2.57v1.79h2.57V147.6H452V130.37h3.61v-1.79H452v-2.75a5.44,5.44,0,0,1,.72-3,2.34,2.34,0,0,1,2.1-1.08,4.92,4.92,0,0,1,.8.06c.24,0,.47.1.71.17l.26-1.77a10,10,0,0,0-1-.26A5.54,5.54,0,0,0,454.6,119.8Z"
       class="cls-1" />
    <rect
       id="rect177"
       height="2.99"
       width="2.13"
       y="120.17"
       x="442.22"
       class="cls-1" />
    <rect
       id="rect179"
       height="2.99"
       width="2.13"
       y="120.17"
       x="390.05"
       class="cls-1" />
    <path
       id="path181"
       d="M383.79,131.23a6.1,6.1,0,0,0-2-2.22,5,5,0,0,0-2.8-.79,5.16,5.16,0,0,0-4.52,2.45,11.48,11.48,0,0,0-1.63,6.48v2.61a10,10,0,0,0,1.62,6A5.23,5.23,0,0,0,379,148a5.32,5.32,0,0,0,2.73-.68,5.82,5.82,0,0,0,2-2v2.3a7,7,0,0,1-1.09,4.27,3.88,3.88,0,0,1-3.35,1.46A7.91,7.91,0,0,1,377,153a7.44,7.44,0,0,1-1.92-.86l-.58,1.85a9.59,9.59,0,0,0,2.3.9,9.36,9.36,0,0,0,2.41.35,6,6,0,0,0,4.84-2,8.5,8.5,0,0,0,1.7-5.66v-19H384Zm-.13,11.71a5.62,5.62,0,0,1-1.67,2.31,4,4,0,0,1-2.58.83,3.7,3.7,0,0,1-3.34-1.72,8.4,8.4,0,0,1-1.11-4.6v-2.61a10.14,10.14,0,0,1,1.13-5.08,3.64,3.64,0,0,1,3.36-1.95,3.73,3.73,0,0,1,2.59.94,6.48,6.48,0,0,1,1.62,2.46Z"
       class="cls-1" />
    <rect
       id="rect183"
       height="19.02"
       width="2.13"
       y="128.58"
       x="390.05"
       class="cls-1" />
    <path
       id="path185"
       d="M417.8,143.76v-9.33a6.25,6.25,0,0,0-1.61-4.6,5.79,5.79,0,0,0-4.26-1.61,6,6,0,0,0-4.38,1.68,4.9,4.9,0,0,0-1.63,3.83l0,.1,2,0a3.62,3.62,0,0,1,1.1-2.67,3.81,3.81,0,0,1,2.81-1.09,3.62,3.62,0,0,1,2.84,1.14,4.59,4.59,0,0,1,1,3.17v2.33h-3.32a7.55,7.55,0,0,0-5,1.58,5.2,5.2,0,0,0-1.87,4.22,5.8,5.8,0,0,0,1.29,4,4.54,4.54,0,0,0,3.63,1.46,5.36,5.36,0,0,0,3.07-.92,7.26,7.26,0,0,0,2.24-2.34,10.86,10.86,0,0,0,.08,1.28c.06.42.13,1,.24,1.62h2.2a12.81,12.81,0,0,1-.32-1.87C417.83,145.1,417.8,144.44,417.8,143.76Zm-2.11-1.28a5.44,5.44,0,0,1-1.92,2.58,5.13,5.13,0,0,1-3.12,1,2.82,2.82,0,0,1-2.27-1,3.76,3.76,0,0,1-.81-2.5,4,4,0,0,1,1.29-3,4.87,4.87,0,0,1,3.46-1.22h3.37Z"
       class="cls-1" />
    <g
       id="g4073">
      <path
         class="cls-1"
         d="M402.3,146a5.69,5.69,0,0,1-.83.05,1.6,1.6,0,0,1-1.39-.77,4.84,4.84,0,0,1-.52-2.61V130.37h3.3v-1.79h-3.3v-4.86h-2.13v4.86h-2.64v1.79h2.64V142.7a6.65,6.65,0,0,0,1,4A3.14,3.14,0,0,0,401,148a7.06,7.06,0,0,0,1.37-.13,4,4,0,0,0,1.09-.34l-.28-1.62C402.87,145.94,402.57,146,402.3,146Z"
         id="path187" />
    </g>
    <rect
       id="rect189"
       height="52.12"
       width="17.76"
       y="58.24"
       x="250.58"
       class="cls-1" />
    <rect
       id="rect191"
       height="12.53"
       width="18.38"
       y="40.48"
       x="250.27"
       class="cls-1" />
    <g
       id="g4049">
      <path
         class="cls-1"
         d="M328.93,73.14l6.59,0h6V58.26H339.9l-11.28,0H311.18v52.12h17.75Z"
         id="path193" />
    </g>
    <g
       id="g4046">
      <path
         class="cls-1"
         d="M373.75,58.24H360.48q-7.94,0-11.39,3.34t-3.44,9.61V97.41q0,6.27,3.44,9.61t11.39,3.34h13.27q7.94,0,11.38-3.34t3.45-9.61V71.19q0-6.27-3.45-9.61T373.75,58.24Zm-2.62,37.5c0,1.53-.87,2.3-2.61,2.3H365.7c-1.74,0-2.61-.77-2.61-2.3V72.86c0-1.53.87-2.29,2.61-2.29h2.82c1.74,0,2.61.76,2.61,2.29Z"
         id="path195" />
    </g>
    <g
       id="g4040">
      <polygon
         class="cls-1"
         points="211.43 73.67 226.59 110.34 242.49 110.34 242.49 40.48 225.53 40.48 225.53 77.81 210.37 40.48 194.47 40.48 194.47 110.34 211.43 110.34 211.43 73.67"
         id="polygon197" />
    </g>
    <g
       id="g4080">
      <g
         id="g4058">
        <path
           id="path199"
           d="M523.48,58.24,517.84,90l-7.08-31.76H492.88l16.57,53.92-6.76,25.68H518.8l22.54-79.6Z"
           class="cls-1" />
      </g>
    </g>
    <g
       id="g4055">
      <path
         class="cls-1"
         d="M475.21,58.24H462.46q-15.34,0-15.35,12.95V97.41q0,13,15.35,13h12.75q15.35,0,15.35-13v-4.7H473.74v2.93c0,1.67,0,2.5,0,2.5h-7.23c-1.75,0-2.62-.76-2.62-2.3V89h26.64V71.19Q490.56,58.25,475.21,58.24Zm-1.47,21.1h-9.82V72.76c0-1.53.87-2.3,2.62-2.3h4.59c1.74,0,2.61.77,2.61,2.3Z"
         id="path201" />
    </g>
    <g
       id="g4043">
      <path
         class="cls-1"
         d="M294.33,110.5h8.88V97.44h-6.47v-26h6.58V58.38h-6.58V40.67H279V58.38h-5.75V71.43H279v39.05S284.1,110.5,294.33,110.5Z"
         id="path203" />
    </g>
    <g
       id="g4052">
      <polygon
         class="cls-1"
         points="414.17 86.03 423.88 110.36 442.37 110.36 431.19 83.94 442.37 58.24 423.99 58.24 414.17 81.95 414.17 40.48 396.41 40.48 396.41 110.36 414.17 110.36 414.17 86.03"
         id="polygon205" />
    </g>
  </g>
  <g
     id="g4037"
     style="fill:#ff0000">
    <path
       id="path207"
       d="M125.37,99,96.69,115.6a4.1,4.1,0,0,1-5.58-1.5L75.77,87.53A4.09,4.09,0,0,1,77.27,82L106,65.4,125.37,99Z"
       class="cls-1"
       style="fill:#ff0000" />
  </g>
  <g
     id="g4034"
     style="fill:#ff0000">
    <path
       id="path209"
       d="M110.48,68.25,125,93.43l28.75-16.61L139.24,51.65l-28.76,16.6Zm14.36-3a1,1,0,0,1,.35-1.34L128,62.25a1,1,0,0,1,1.34.35l2.41,4.14a1,1,0,0,1-.36,1.34l-2.84,1.65a1,1,0,0,1-1.34-.35l-2.41-4.14Zm14.22,15.93-2.84,1.66a1,1,0,0,1-1.34-.35l-2.41-4.14a1,1,0,0,1,.35-1.34l2.85-1.65a1,1,0,0,1,1.34.35l2.4,4.13a1,1,0,0,1-.35,1.34Z"
       class="cls-1"
       style="fill:#ff0000" />
  </g>
</svg>
