<?xml version="1.0" encoding="UTF-8" standalone="no"?>
<svg
   xmlns:dc="http://purl.org/dc/elements/1.1/"
   xmlns:cc="http://creativecommons.org/ns#"
   xmlns:rdf="http://www.w3.org/1999/02/22-rdf-syntax-ns#"
   xmlns:svg="http://www.w3.org/2000/svg"
   xmlns="http://www.w3.org/2000/svg"
   xmlns:sodipodi="http://sodipodi.sourceforge.net/DTD/sodipodi-0.dtd"
   xmlns:inkscape="http://www.inkscape.org/namespaces/inkscape"
   id="Ebene_1"
   data-name="Ebene 1"
   viewBox="0 0 595.28 170.08"
   version="1.1"
   sodipodi:docname="logo.svg"
   inkscape:version="0.92.3 (2405546, 2018-03-11)">
  <metadata
     id="metadata4158">
    <rdf:RDF>
      <cc:Work
         rdf:about="">
        <dc:format>image/svg+xml</dc:format>
        <dc:type
           rdf:resource="http://purl.org/dc/dcmitype/StillImage" />
        <dc:title>Zeichenfläche 1</dc:title>
      </cc:Work>
    </rdf:RDF>
  </metadata>
  <sodipodi:namedview
     pagecolor="#ffffff"
     bordercolor="#666666"
     borderopacity="1"
     objecttolerance="10"
     gridtolerance="10"
     guidetolerance="10"
     inkscape:pageopacity="0"
     inkscape:pageshadow="2"
     inkscape:window-width="2946"
     inkscape:window-height="1651"
     id="namedview4156"
     showgrid="false"
     inkscape:zoom="1.1708775"
     inkscape:cx="297.64001"
     inkscape:cy="85.040001"
     inkscape:window-x="134"
     inkscape:window-y="55"
     inkscape:window-maximized="0"
     inkscape:current-layer="Ebene_1" />
  <defs
     id="defs4079">
    <style
       id="style4077">.cls-1{fill:#fff;}</style>
  </defs>
  <title
     id="title4081">Zeichenfläche 1</title>
  <path
     class="cls-1"
     d="M125.37,99,96.69,115.6a4.1,4.1,0,0,1-5.58-1.5L75.77,87.53A4.09,4.09,0,0,1,77.27,82L106,65.4,125.37,99Z"
     id="path4149"
     style="fill:#d40000" />
  <path
     class="cls-1"
     d="M110.48,68.25,125,93.43l28.75-16.61L139.24,51.65l-28.76,16.6Zm14.36-3a1,1,0,0,1,.35-1.34L128,62.25a1,1,0,0,1,1.34.35l2.41,4.14a1,1,0,0,1-.36,1.34l-2.84,1.65a1,1,0,0,1-1.34-.35l-2.41-4.14Zm14.22,15.93-2.84,1.66a1,1,0,0,1-1.34-.35l-2.41-4.14a1,1,0,0,1,.35-1.34l2.85-1.65a1,1,0,0,1,1.34.35l2.4,4.13a1,1,0,0,1-.35,1.34Z"
     id="path4151"
     style="fill:#d40000" />
  <path
     class="cls-1"
     d="M114.66,153.86a12,12,0,0,1-4.46-.86c-37.79-15.12-53.52-50.44-56.29-57.37A12.39,12.39,0,0,1,53,90.92V47.43A12.4,12.4,0,0,1,60.5,36L110,15a12,12,0,0,1,9.3,0L168.81,36a12.36,12.36,0,0,1,7.52,11.48V90.92a12.74,12.74,0,0,1-.91,4.69c-2.78,7-18.51,42.27-56.3,57.39a12,12,0,0,1-4.46.86Zm0-128.77a1,1,0,0,0-.37.08L64.8,46.08a1.47,1.47,0,0,0-.8,1.35V90.92a1.54,1.54,0,0,0,.11.58c2.49,6.25,16.55,37.83,50.18,51.29a1,1,0,0,0,.75,0c33.62-13.46,47.68-45,50.16-51.24a1.82,1.82,0,0,0,.13-.63V47.43a1.44,1.44,0,0,0-.78-1.34L115,25.17a.91.91,0,0,0-.37-.08Z"
     id="path4153"
     style="fill:#d40000" />
</svg>
