<?xml version="1.0" encoding="UTF-8" standalone="no"?>
<svg
   xmlns:dc="http://purl.org/dc/elements/1.1/"
   xmlns:cc="http://creativecommons.org/ns#"
   xmlns:rdf="http://www.w3.org/1999/02/22-rdf-syntax-ns#"
   xmlns:svg="http://www.w3.org/2000/svg"
   xmlns="http://www.w3.org/2000/svg"
   xmlns:sodipodi="http://sodipodi.sourceforge.net/DTD/sodipodi-0.dtd"
   xmlns:inkscape="http://www.inkscape.org/namespaces/inkscape"
   id="Ebene_1"
   data-name="Ebene 1"
   viewBox="0 0 595.28 170.08"
   version="1.1"
   sodipodi:docname="slogan.svg"
   inkscape:version="0.92.3 (2405546, 2018-03-11)">
  <metadata
     id="metadata216">
    <rdf:RDF>
      <cc:Work
         rdf:about="">
        <dc:format>image/svg+xml</dc:format>
        <dc:type
           rdf:resource="http://purl.org/dc/dcmitype/StillImage" />
        <dc:title>Zeichenfläche 1</dc:title>
      </cc:Work>
    </rdf:RDF>
  </metadata>
  <sodipodi:namedview
     pagecolor="#ffffff"
     bordercolor="#666666"
     borderopacity="1"
     objecttolerance="10"
     gridtolerance="10"
     guidetolerance="10"
     inkscape:pageopacity="0"
     inkscape:pageshadow="2"
     inkscape:window-width="761"
     inkscape:window-height="480"
     id="namedview214"
     showgrid="false"
     inkscape:zoom="0.8124933"
     inkscape:cx="252.96607"
     inkscape:cy="4.2302755"
     inkscape:window-x="447"
     inkscape:window-y="156"
     inkscape:window-maximized="0"
     inkscape:current-layer="Ebene_1" />
  <defs
     id="defs137">
    <style
       id="style135">.cls-1{fill:#fff;}</style>
  </defs>
  <title
     id="title139">Zeichenfläche 1</title>
  <g
     id="g4129"
     transform="translate(-62.76975,-12.307794)">
    <path
       id="path141"
       d="m 340.31,128.22 a 3.85,3.85 0 0 0 -2.57,0.93 6.36,6.36 0 0 0 -1.77,2.57 l -0.24,-3.14 h -1.87 v 19 H 336 V 134.1 a 6.1,6.1 0 0 1 1.43,-2.74 3.25,3.25 0 0 1 2.44,-1 l 1.39,0.1 0.28,-2.05 a 3.15,3.15 0 0 0 -0.53,-0.13 3.71,3.71 0 0 0 -0.7,-0.06 z"
       class="cls-1"
       inkscape:connector-curvature="0"
       style="fill:#ffffff" />
    <g
       id="g4070">
      <path
         class="cls-1"
         d="m 360.69,131.05 a 6.08,6.08 0 0 0 -2,-2.09 5.16,5.16 0 0 0 -7.22,2 14.45,14.45 0 0 0 -1.6,7.3 v 0.37 a 12.56,12.56 0 0 0 1.61,6.79 5,5 0 0 0 4.52,2.58 5.29,5.29 0 0 0 2.79,-0.72 5.79,5.79 0 0 0 2,-2.11 l 0.17,2.47 h 1.87 v -27.47 h -2.11 z m 0,11.83 a 5.76,5.76 0 0 1 -1.66,2.36 4,4 0 0 1 -2.6,0.84 3.52,3.52 0 0 1 -3.29,-2 11.54,11.54 0 0 1 -1.08,-5.44 v -0.37 a 13.55,13.55 0 0 1 1.09,-5.89 3.51,3.51 0 0 1 3.32,-2.25 3.68,3.68 0 0 1 2.6,1 6.49,6.49 0 0 1 1.62,2.49 z"
         id="path143"
         inkscape:connector-curvature="0"
         style="fill:#ffffff" />
    </g>
    <path
       id="path145"
       d="m 327.71,142.43 a 5.38,5.38 0 0 1 -1.63,2.68 4.34,4.34 0 0 1 -2.94,1 2.89,2.89 0 0 1 -2.63,-1.48 10.05,10.05 0 0 1 -0.9,-4.95 v -11.1 h -2.11 v 11 c 0,2.85 0.47,5 1.41,6.31 a 4.53,4.53 0 0 0 3.95,2 5,5 0 0 0 2.92,-0.87 6.06,6.06 0 0 0 2,-2.47 l 0.14,3 h 1.9 v -19 h -2.11 z"
       class="cls-1"
       inkscape:connector-curvature="0"
       style="fill:#ffffff" />
    <rect
       id="rect147"
       height="19.02"
       width="2.1300001"
       y="128.58"
       x="367.12"
       class="cls-1"
       style="fill:#ffffff" />
    <path
       id="path149"
       d="m 200.19,137 a 12,12 0 0 1 -3.16,-1.92 3,3 0 0 1 0.19,-4.12 3.74,3.74 0 0 1 2.71,-0.9 3.52,3.52 0 0 1 2.76,1.14 3.91,3.91 0 0 1 1,2.69 h 2 v -0.1 a 5.27,5.27 0 0 0 -1.51,-4 5.8,5.8 0 0 0 -4.29,-1.6 6,6 0 0 0 -4.15,1.45 4.5,4.5 0 0 0 -1.6,3.48 4.23,4.23 0 0 0 1.34,3.24 14.48,14.48 0 0 0 4.25,2.43 10,10 0 0 1 3.12,2 3.24,3.24 0 0 1 0.85,2.25 2.84,2.84 0 0 1 -1,2.21 4.07,4.07 0 0 1 -2.79,0.9 4.61,4.61 0 0 1 -2.85,-0.92 3.79,3.79 0 0 1 -1.32,-3 h -2 v 0.1 a 5.06,5.06 0 0 0 1.57,3.94 6.24,6.24 0 0 0 4.6,1.65 6.44,6.44 0 0 0 4.3,-1.38 4.6,4.6 0 0 0 1.62,-3.66 4.49,4.49 0 0 0 -1.41,-3.4 13.17,13.17 0 0 0 -4.23,-2.48 z"
       class="cls-1"
       inkscape:connector-curvature="0"
       style="fill:#ffffff" />
    <path
       id="path151"
       d="m 292.36,144.27 h -0.11 l -0.49,-1.91 -4,-13.78 h -2.34 l 6,18.77 -0.79,2.51 a 8.35,8.35 0 0 1 -1.08,2.48 2,2 0 0 1 -1.74,1 5.52,5.52 0 0 1 -0.59,0 l -0.58,-0.08 -0.23,1.81 a 5.93,5.93 0 0 0 0.7,0.16 4.42,4.42 0 0 0 0.79,0.09 3.38,3.38 0 0 0 2.89,-1.37 11.37,11.37 0 0 0 1.63,-3.27 l 6.78,-22.06 h -2.35 z"
       class="cls-1"
       inkscape:connector-curvature="0"
       style="fill:#ffffff" />
    <g
       id="g4067">
      <path
         class="cls-1"
         d="m 307.35,128.22 a 6.18,6.18 0 0 0 -5.1,2.4 9.49,9.49 0 0 0 -1.89,6.08 v 2.79 a 9.47,9.47 0 0 0 1.89,6.11 6.71,6.71 0 0 0 10.22,0 9.47,9.47 0 0 0 1.9,-6.11 v -2.79 a 9.44,9.44 0 0 0 -1.91,-6.09 6.2,6.2 0 0 0 -5.11,-2.39 z m 4.89,11.29 a 8.37,8.37 0 0 1 -1.28,4.75 4.36,4.36 0 0 1 -7.21,0 8.44,8.44 0 0 1 -1.27,-4.76 v -2.8 a 8.36,8.36 0 0 1 1.27,-4.71 4,4 0 0 1 3.6,-1.91 4.1,4.1 0 0 1 3.65,1.92 8.28,8.28 0 0 1 1.28,4.71 z"
         id="path153"
         inkscape:connector-curvature="0"
         style="fill:#ffffff" />
    </g>
    <path
       id="path155"
       d="m 262.12,128.22 a 3.85,3.85 0 0 0 -2.57,0.93 6.26,6.26 0 0 0 -1.77,2.57 l -0.25,-3.14 h -1.86 v 19 h 2.11 V 134.1 a 6.09,6.09 0 0 1 1.42,-2.74 3.29,3.29 0 0 1 2.45,-1 l 1.39,0.1 0.28,-2.05 a 3.15,3.15 0 0 0 -0.53,-0.13 3.81,3.81 0 0 0 -0.67,-0.06 z"
       class="cls-1"
       inkscape:connector-curvature="0"
       style="fill:#ffffff" />
    <path
       id="path157"
       d="m 226.61,132 a 3.89,3.89 0 0 1 3.59,-1.86 3.8,3.8 0 0 1 3,1.34 5.27,5.27 0 0 1 1.19,3.61 h 1.88 v -0.08 a 6.64,6.64 0 0 0 -1.68,-4.88 5.71,5.71 0 0 0 -4.38,-1.86 5.94,5.94 0 0 0 -5.06,2.37 9.86,9.86 0 0 0 -1.76,6 v 3 a 9.84,9.84 0 0 0 1.76,6 6.38,6.38 0 0 0 9.35,0.57 5.69,5.69 0 0 0 1.77,-4.41 v -0.11 h -1.86 a 4.38,4.38 0 0 1 -1.31,3.31 4.09,4.09 0 0 1 -2.9,1.19 3.88,3.88 0 0 1 -3.59,-1.85 8.94,8.94 0 0 1 -1.12,-4.72 v -3 a 8.92,8.92 0 0 1 1.12,-4.62 z"
       class="cls-1"
       inkscape:connector-curvature="0"
       style="fill:#ffffff" />
    <path
       id="path159"
       d="m 271,128.22 a 5.92,5.92 0 0 0 -4.72,2.39 9.08,9.08 0 0 0 -2,6 v 3.17 a 8.81,8.81 0 0 0 2,5.89 6.24,6.24 0 0 0 5,2.31 7.44,7.44 0 0 0 3.28,-0.65 6.2,6.2 0 0 0 2.23,-1.76 l -0.86,-1.49 a 5.44,5.44 0 0 1 -1.95,1.56 6,6 0 0 1 -2.7,0.55 4.16,4.16 0 0 1 -3.56,-1.83 7.7,7.7 0 0 1 -1.32,-4.6 v -1.58 h 10.88 v -2.09 a 9.11,9.11 0 0 0 -1.65,-5.72 5.54,5.54 0 0 0 -4.63,-2.15 z m 4.18,8.14 h -8.77 a 7.86,7.86 0 0 1 1.32,-4.46 3.85,3.85 0 0 1 3.27,-1.81 3.57,3.57 0 0 1 3.07,1.55 6.59,6.59 0 0 1 1.11,3.91 z"
       class="cls-1"
       inkscape:connector-curvature="0"
       style="fill:#ffffff" />
    <g
       id="g4064">
      <path
         class="cls-1"
         d="m 249.52,142.43 a 5.38,5.38 0 0 1 -1.63,2.68 4.34,4.34 0 0 1 -2.94,1 2.89,2.89 0 0 1 -2.63,-1.48 9.92,9.92 0 0 1 -0.91,-4.95 v -11.1 h -2.11 v 11 c 0,2.85 0.48,5 1.42,6.31 a 4.52,4.52 0 0 0 3.94,2 5,5 0 0 0 2.92,-0.87 6.16,6.16 0 0 0 2,-2.47 l 0.14,3 h 1.9 v -19 h -2.11 z"
         id="path161"
         inkscape:connector-curvature="0"
         style="fill:#ffffff" />
    </g>
    <g
       id="g4061">
      <path
         class="cls-1"
         d="m 214.92,128.22 a 5.93,5.93 0 0 0 -4.72,2.39 9.14,9.14 0 0 0 -2,6 v 3.17 a 8.81,8.81 0 0 0 1.95,5.89 6.25,6.25 0 0 0 5,2.31 7.47,7.47 0 0 0 3.28,-0.65 6.08,6.08 0 0 0 2.22,-1.76 l -0.86,-1.49 a 5.49,5.49 0 0 1 -1.94,1.56 6.11,6.11 0 0 1 -2.7,0.55 4.18,4.18 0 0 1 -3.57,-1.83 7.7,7.7 0 0 1 -1.32,-4.6 v -1.58 h 10.88 v -2.09 a 9.11,9.11 0 0 0 -1.65,-5.72 5.54,5.54 0 0 0 -4.57,-2.15 z m 4.18,8.14 h -8.77 a 7.87,7.87 0 0 1 1.33,-4.46 3.84,3.84 0 0 1 3.26,-1.81 3.59,3.59 0 0 1 3.08,1.55 6.59,6.59 0 0 1 1.1,3.91 z"
         id="path163"
         inkscape:connector-curvature="0"
         style="fill:#ffffff" />
    </g>
    <rect
       id="rect165"
       height="19.02"
       width="2.1300001"
       y="128.58"
       x="442.22"
       class="cls-1"
       style="fill:#ffffff" />
    <rect
       id="rect167"
       height="2.99"
       width="2.1300001"
       y="120.17"
       x="367.12"
       class="cls-1"
       style="fill:#ffffff" />
    <rect
       id="rect169"
       height="27.42"
       width="2.1300001"
       y="120.17"
       x="435.60999"
       class="cls-1"
       style="fill:#ffffff" />
    <rect
       id="rect171"
       height="27.42"
       width="2.1300001"
       y="120.17"
       x="422.10999"
       class="cls-1"
       style="fill:#ffffff" />
    <g
       id="g4076">
      <path
         class="cls-1"
         d="m 463.62,128.22 a 5.92,5.92 0 0 0 -4.72,2.39 9.08,9.08 0 0 0 -2,6 v 3.17 a 8.81,8.81 0 0 0 1.95,5.89 6.24,6.24 0 0 0 5,2.31 7.44,7.44 0 0 0 3.28,-0.65 6.2,6.2 0 0 0 2.23,-1.76 l -0.86,-1.49 a 5.44,5.44 0 0 1 -1.95,1.56 6,6 0 0 1 -2.7,0.55 4.16,4.16 0 0 1 -3.56,-1.83 7.7,7.7 0 0 1 -1.32,-4.6 v -1.58 h 10.88 v -2.09 a 9.11,9.11 0 0 0 -1.65,-5.72 5.54,5.54 0 0 0 -4.58,-2.15 z m 4.18,8.14 H 459 a 7.79,7.79 0 0 1 1.33,-4.46 3.83,3.83 0 0 1 3.26,-1.81 3.57,3.57 0 0 1 3.07,1.55 6.59,6.59 0 0 1 1.11,3.91 z"
         id="path173"
         inkscape:connector-curvature="0"
         style="fill:#ffffff" />
    </g>
    <path
       id="path175"
       d="m 454.6,119.8 a 4.16,4.16 0 0 0 -3.46,1.58 7.08,7.08 0 0 0 -1.23,4.45 v 2.75 h -2.57 v 1.79 h 2.57 V 147.6 H 452 v -17.23 h 3.61 v -1.79 H 452 v -2.75 a 5.44,5.44 0 0 1 0.72,-3 2.34,2.34 0 0 1 2.1,-1.08 4.92,4.92 0 0 1 0.8,0.06 c 0.24,0 0.47,0.1 0.71,0.17 l 0.26,-1.77 a 10,10 0 0 0 -1,-0.26 5.54,5.54 0 0 0 -0.99,-0.15 z"
       class="cls-1"
       inkscape:connector-curvature="0"
       style="fill:#ffffff" />
    <rect
       id="rect177"
       height="2.99"
       width="2.1300001"
       y="120.17"
       x="442.22"
       class="cls-1"
       style="fill:#ffffff" />
    <rect
       id="rect179"
       height="2.99"
       width="2.1300001"
       y="120.17"
       x="390.04999"
       class="cls-1"
       style="fill:#ffffff" />
    <path
       id="path181"
       d="m 383.79,131.23 a 6.1,6.1 0 0 0 -2,-2.22 5,5 0 0 0 -2.8,-0.79 5.16,5.16 0 0 0 -4.52,2.45 11.48,11.48 0 0 0 -1.63,6.48 v 2.61 a 10,10 0 0 0 1.62,6 5.23,5.23 0 0 0 4.54,2.24 5.32,5.32 0 0 0 2.73,-0.68 5.82,5.82 0 0 0 2,-2 v 2.3 a 7,7 0 0 1 -1.09,4.27 3.88,3.88 0 0 1 -3.35,1.46 7.91,7.91 0 0 1 -2.29,-0.35 7.44,7.44 0 0 1 -1.92,-0.86 l -0.58,1.85 a 9.59,9.59 0 0 0 2.3,0.9 9.36,9.36 0 0 0 2.41,0.35 6,6 0 0 0 4.84,-2 8.5,8.5 0 0 0 1.7,-5.66 v -19 H 384 Z m -0.13,11.71 a 5.62,5.62 0 0 1 -1.67,2.31 4,4 0 0 1 -2.58,0.83 3.7,3.7 0 0 1 -3.34,-1.72 8.4,8.4 0 0 1 -1.11,-4.6 v -2.61 a 10.14,10.14 0 0 1 1.13,-5.08 3.64,3.64 0 0 1 3.36,-1.95 3.73,3.73 0 0 1 2.59,0.94 6.48,6.48 0 0 1 1.62,2.46 z"
       class="cls-1"
       inkscape:connector-curvature="0"
       style="fill:#ffffff" />
    <rect
       id="rect183"
       height="19.02"
       width="2.1300001"
       y="128.58"
       x="390.04999"
       class="cls-1"
       style="fill:#ffffff" />
    <path
       id="path185"
       d="m 417.8,143.76 v -9.33 a 6.25,6.25 0 0 0 -1.61,-4.6 5.79,5.79 0 0 0 -4.26,-1.61 6,6 0 0 0 -4.38,1.68 4.9,4.9 0 0 0 -1.63,3.83 v 0.1 h 2 a 3.62,3.62 0 0 1 1.1,-2.67 3.81,3.81 0 0 1 2.81,-1.09 3.62,3.62 0 0 1 2.84,1.14 4.59,4.59 0 0 1 1,3.17 v 2.33 h -3.32 a 7.55,7.55 0 0 0 -5,1.58 5.2,5.2 0 0 0 -1.87,4.22 5.8,5.8 0 0 0 1.29,4 4.54,4.54 0 0 0 3.63,1.46 5.36,5.36 0 0 0 3.07,-0.92 7.26,7.26 0 0 0 2.24,-2.34 10.86,10.86 0 0 0 0.08,1.28 c 0.06,0.42 0.13,1 0.24,1.62 h 2.2 a 12.81,12.81 0 0 1 -0.32,-1.87 c -0.08,-0.64 -0.11,-1.3 -0.11,-1.98 z m -2.11,-1.28 a 5.44,5.44 0 0 1 -1.92,2.58 5.13,5.13 0 0 1 -3.12,1 2.82,2.82 0 0 1 -2.27,-1 3.76,3.76 0 0 1 -0.81,-2.5 4,4 0 0 1 1.29,-3 4.87,4.87 0 0 1 3.46,-1.22 h 3.37 z"
       class="cls-1"
       inkscape:connector-curvature="0"
       style="fill:#ffffff" />
    <g
       id="g4073">
      <path
         class="cls-1"
         d="m 402.3,146 a 5.69,5.69 0 0 1 -0.83,0.05 1.6,1.6 0 0 1 -1.39,-0.77 4.84,4.84 0 0 1 -0.52,-2.61 v -12.3 h 3.3 v -1.79 h -3.3 v -4.86 h -2.13 v 4.86 h -2.64 v 1.79 h 2.64 v 12.33 a 6.65,6.65 0 0 0 1,4 3.14,3.14 0 0 0 2.57,1.3 7.06,7.06 0 0 0 1.37,-0.13 4,4 0 0 0 1.09,-0.34 l -0.28,-1.62 c -0.31,0.03 -0.61,0.09 -0.88,0.09 z"
         id="path187"
         inkscape:connector-curvature="0"
         style="fill:#ffffff" />
    </g>
    <rect
       id="rect189"
       height="52.119999"
       width="17.76"
       y="58.240002"
       x="250.58"
       class="cls-1"
       style="fill:#ffffff" />
    <rect
       id="rect191"
       height="12.53"
       width="18.379999"
       y="40.48"
       x="250.27"
       class="cls-1"
       style="fill:#ffffff" />
    <g
       id="g4049">
      <path
         class="cls-1"
         d="m 328.93,73.14 h 6.59 6 V 58.26 h -1.62 -11.28 -17.44 v 52.12 h 17.75 z"
         id="path193"
         inkscape:connector-curvature="0"
         style="fill:#ffffff" />
    </g>
    <g
       id="g4046">
      <path
         class="cls-1"
         d="m 373.75,58.24 h -13.27 q -7.94,0 -11.39,3.34 -3.45,3.34 -3.44,9.61 v 26.22 q 0,6.27 3.44,9.61 3.44,3.34 11.39,3.34 h 13.27 q 7.94,0 11.38,-3.34 3.44,-3.34 3.45,-9.61 V 71.19 q 0,-6.27 -3.45,-9.61 -3.45,-3.34 -11.38,-3.34 z m -2.62,37.5 c 0,1.53 -0.87,2.3 -2.61,2.3 h -2.82 c -1.74,0 -2.61,-0.77 -2.61,-2.3 V 72.86 c 0,-1.53 0.87,-2.29 2.61,-2.29 h 2.82 c 1.74,0 2.61,0.76 2.61,2.29 z"
         id="path195"
         inkscape:connector-curvature="0"
         style="fill:#ffffff" />
    </g>
    <g
       id="g4040">
      <polygon
         class="cls-1"
         points="242.49,40.48 225.53,40.48 225.53,77.81 210.37,40.48 194.47,40.48 194.47,110.34 211.43,110.34 211.43,73.67 226.59,110.34 242.49,110.34 "
         id="polygon197"
         style="fill:#ffffff" />
    </g>
    <g
       id="g4080">
      <g
         id="g4058">
        <path
           id="path199"
           d="M 523.48,58.24 517.84,90 510.76,58.24 h -17.88 l 16.57,53.92 -6.76,25.68 h 16.11 l 22.54,-79.6 z"
           class="cls-1"
           inkscape:connector-curvature="0"
           style="fill:#ffffff" />
      </g>
    </g>
    <g
       id="g4055">
      <path
         class="cls-1"
         d="m 475.21,58.24 h -12.75 q -15.34,0 -15.35,12.95 v 26.22 q 0,13 15.35,13 h 12.75 q 15.35,0 15.35,-13 v -4.7 h -16.82 v 2.93 c 0,1.67 0,2.5 0,2.5 h -7.23 c -1.75,0 -2.62,-0.76 -2.62,-2.3 V 89 h 26.64 V 71.19 q 0.03,-12.94 -15.32,-12.95 z m -1.47,21.1 h -9.82 v -6.58 c 0,-1.53 0.87,-2.3 2.62,-2.3 h 4.59 c 1.74,0 2.61,0.77 2.61,2.3 z"
         id="path201"
         inkscape:connector-curvature="0"
         style="fill:#ffffff" />
    </g>
    <g
       id="g4043">
      <path
         class="cls-1"
         d="m 294.33,110.5 h 8.88 V 97.44 h -6.47 v -26 h 6.58 V 58.38 h -6.58 V 40.67 H 279 v 17.71 h -5.75 V 71.43 H 279 v 39.05 c 0,0 5.1,0.02 15.33,0.02 z"
         id="path203"
         inkscape:connector-curvature="0"
         style="fill:#ffffff" />
    </g>
    <g
       id="g4052">
      <polygon
         class="cls-1"
         points="431.19,83.94 442.37,58.24 423.99,58.24 414.17,81.95 414.17,40.48 396.41,40.48 396.41,110.36 414.17,110.36 414.17,86.03 423.88,110.36 442.37,110.36 "
         id="polygon205"
         style="fill:#ffffff" />
    </g>
  </g>
</svg>
